<svg width="68" height="68" viewBox="0 0 68 68" fill="none" xmlns="http://www.w3.org/2000/svg">
<path d="M27.1433 23.6602L24.5957 14.1523L45.513 8.54758C48.0346 7.87191 50.7214 8.22563 52.9822 9.53092C55.2431 10.8362 56.8928 12.9862 57.5684 15.5078L58.078 17.4094L29.5544 25.0522C29.0501 25.1874 28.5127 25.1166 28.0606 24.8556C27.6084 24.5945 27.2785 24.1645 27.1433 23.6602Z" fill="#4589EF"/>
<path d="M44.3953 25.9871L53.9032 23.4395L59.508 44.3567C60.1836 46.8784 59.8299 49.5651 58.5246 51.826C57.2193 54.0868 55.0694 55.7365 52.5477 56.4122L50.6462 56.9217L43.0033 28.3982C42.8682 27.8938 42.9389 27.3565 43.2 26.9043C43.461 26.4522 43.891 26.1222 44.3953 25.9871Z" fill="#4589EF"/>
<path d="M41.4227 43.4946L43.9703 53.0024L23.053 58.6072C20.5314 59.2829 17.8446 58.9292 15.5838 57.6239C13.3229 56.3186 11.6732 54.1686 10.9976 51.647L10.488 49.7454L39.0116 42.1025C39.5159 41.9674 40.0533 42.0382 40.5055 42.2992C40.9576 42.5603 41.2876 42.9903 41.4227 43.4946Z" fill="#4589EF"/>
<path d="M22.6603 40.6687L13.1524 43.2163L7.54763 22.299C6.87196 19.7774 7.22568 17.0906 8.53097 14.8298C9.83627 12.5689 11.9862 10.9192 14.5079 10.2435L16.4094 9.734L24.0523 38.2576C24.1875 38.7619 24.1167 39.2993 23.8557 39.7514C23.5946 40.2036 23.1646 40.5336 22.6603 40.6687Z" fill="#4589EF"/>
</svg>
