<svg width="50" height="50" viewBox="0 0 50 50" fill="none" xmlns="http://www.w3.org/2000/svg">
<path d="M0 7.24637C0 3.24431 3.22809 0 7.21014 0H42.5398C46.5218 0 49.75 3.24431 49.75 7.24637V42.7535C49.75 46.7556 46.5218 50 42.5398 50H7.21014C3.22809 50 0 46.7556 0 42.7535V7.24637Z" fill="#355BE4"/>
<path d="M19.412 30.2313L8.65234 41.045H30.0804L19.412 30.2313Z" fill="#B8C7FF"/>
<path d="M19.502 30.3244L25.2466 40.9548H29.988L19.502 30.3244Z" fill="#8698D8"/>
<path d="M8.65234 19.5092H30.0804L40.8401 8.6955H19.412L8.65234 19.5092Z" fill="#B8C7FF"/>
<path d="M40.8909 30.2831L30.1312 19.5611L19.4628 8.74737L8.70312 19.5611L19.4628 30.2831L30.1312 41.0969L40.8909 30.2831Z" fill="white"/>
</svg>
