<svg width="279" height="68" viewBox="0 0 279 68" fill="none" xmlns="http://www.w3.org/2000/svg">
<g clip-path="url(#clip0_8231_2894)">
<path d="M91.05 54L80.5 18H87.65L94.4 42.75L101.15 18.05L108.3 18L115.05 42.75L121.8 18H128.95L118.4 54H111.7L104.725 29.7L97.75 54H91.05Z" fill="white"/>
<path d="M142.534 54.75C139.768 54.75 137.326 54.1583 135.209 52.975C133.109 51.775 131.459 50.1333 130.259 48.05C129.076 45.95 128.484 43.55 128.484 40.85C128.484 37.9 129.068 35.3333 130.234 33.15C131.401 30.9667 133.009 29.275 135.059 28.075C137.109 26.8583 139.468 26.25 142.134 26.25C144.968 26.25 147.376 26.9167 149.359 28.25C151.343 29.5833 152.809 31.4583 153.759 33.875C154.709 36.2917 155.043 39.1333 154.759 42.4H148.034V39.9C148.034 37.15 147.593 35.175 146.709 33.975C145.843 32.7583 144.418 32.15 142.434 32.15C140.118 32.15 138.409 32.8583 137.309 34.275C136.226 35.675 135.684 37.75 135.684 40.5C135.684 43.0167 136.226 44.9667 137.309 46.35C138.409 47.7167 140.018 48.4 142.134 48.4C143.468 48.4 144.609 48.1083 145.559 47.525C146.509 46.9417 147.234 46.1 147.734 45L154.534 46.95C153.518 49.4167 151.909 51.3333 149.709 52.7C147.526 54.0667 145.134 54.75 142.534 54.75ZM133.584 42.4V37.35H151.484V42.4H133.584Z" fill="white"/>
<path d="M160.404 54V18H172.054C172.338 18 172.921 18.0083 173.804 18.025C174.688 18.0417 175.538 18.1 176.354 18.2C179.254 18.55 181.713 19.5583 183.729 21.225C185.746 22.8917 187.279 25.0083 188.329 27.575C189.379 30.1417 189.904 32.95 189.904 36C189.904 39.05 189.379 41.8583 188.329 44.425C187.279 46.9917 185.746 49.1083 183.729 50.775C181.713 52.4417 179.254 53.45 176.354 53.8C175.538 53.9 174.688 53.9583 173.804 53.975C172.921 53.9917 172.338 54 172.054 54H160.404ZM167.304 47.6H172.054C172.504 47.6 173.113 47.5917 173.879 47.575C174.646 47.5417 175.338 47.4667 175.954 47.35C177.521 47.0333 178.796 46.3 179.779 45.15C180.779 44 181.513 42.6167 181.979 41C182.463 39.3833 182.704 37.7167 182.704 36C182.704 34.2 182.454 32.4917 181.954 30.875C181.471 29.2583 180.729 27.8917 179.729 26.775C178.729 25.6583 177.471 24.95 175.954 24.65C175.338 24.5167 174.646 24.4417 173.879 24.425C173.113 24.4083 172.504 24.4 172.054 24.4H167.304V47.6Z" fill="white"/>
<path d="M208.452 54.75C205.686 54.75 203.244 54.1583 201.127 52.975C199.027 51.775 197.377 50.1333 196.177 48.05C194.994 45.95 194.402 43.55 194.402 40.85C194.402 37.9 194.986 35.3333 196.152 33.15C197.319 30.9667 198.927 29.275 200.977 28.075C203.027 26.8583 205.386 26.25 208.052 26.25C210.886 26.25 213.294 26.9167 215.277 28.25C217.261 29.5833 218.727 31.4583 219.677 33.875C220.627 36.2917 220.961 39.1333 220.677 42.4H213.952V39.9C213.952 37.15 213.511 35.175 212.627 33.975C211.761 32.7583 210.336 32.15 208.352 32.15C206.036 32.15 204.327 32.8583 203.227 34.275C202.144 35.675 201.602 37.75 201.602 40.5C201.602 43.0167 202.144 44.9667 203.227 46.35C204.327 47.7167 205.936 48.4 208.052 48.4C209.386 48.4 210.527 48.1083 211.477 47.525C212.427 46.9417 213.152 46.1 213.652 45L220.452 46.95C219.436 49.4167 217.827 51.3333 215.627 52.7C213.444 54.0667 211.052 54.75 208.452 54.75ZM199.502 42.4V37.35H217.402V42.4H199.502Z" fill="white"/>
<path d="M236.872 54.75C233.472 54.75 230.722 53.9833 228.622 52.45C226.539 50.9 225.272 48.7167 224.822 45.9L231.772 44.85C232.056 46.1167 232.681 47.1083 233.647 47.825C234.631 48.5417 235.872 48.9 237.372 48.9C238.606 48.9 239.556 48.6667 240.222 48.2C240.889 47.7167 241.222 47.05 241.222 46.2C241.222 45.6667 241.089 45.2417 240.822 44.925C240.556 44.5917 239.956 44.2667 239.022 43.95C238.106 43.6333 236.672 43.2167 234.722 42.7C232.522 42.1333 230.764 41.5 229.447 40.8C228.131 40.1 227.181 39.2667 226.597 38.3C226.014 37.3167 225.722 36.1333 225.722 34.75C225.722 33.0167 226.164 31.5167 227.047 30.25C227.931 28.9667 229.172 27.9833 230.772 27.3C232.389 26.6 234.289 26.25 236.472 26.25C238.589 26.25 240.464 26.575 242.097 27.225C243.731 27.875 245.047 28.8 246.047 30C247.064 31.2 247.689 32.6167 247.922 34.25L240.972 35.5C240.856 34.5 240.422 33.7083 239.672 33.125C238.922 32.5417 237.906 32.2 236.622 32.1C235.372 32.0167 234.364 32.1833 233.597 32.6C232.847 33.0167 232.472 33.6167 232.472 34.4C232.472 34.8667 232.631 35.2583 232.947 35.575C233.281 35.8917 233.956 36.2167 234.972 36.55C236.006 36.8833 237.572 37.3167 239.672 37.85C241.722 38.3833 243.364 39.0083 244.597 39.725C245.847 40.425 246.756 41.275 247.322 42.275C247.889 43.2583 248.172 44.45 248.172 45.85C248.172 48.6167 247.172 50.7917 245.172 52.375C243.172 53.9583 240.406 54.75 236.872 54.75Z" fill="white"/>
<path d="M253.616 54L253.666 18H260.566V40L269.716 27H278.116L268.366 40.5L278.766 54H269.916L260.566 41V54H253.616Z" fill="white"/>
<path d="M27.1433 23.6602L24.5957 14.1523L45.513 8.54758C48.0346 7.87191 50.7214 8.22563 52.9822 9.53092C55.243 10.8362 56.8928 12.9862 57.5684 15.5078L58.0779 17.4094L29.5544 25.0522C29.0501 25.1874 28.5127 25.1166 28.0606 24.8556C27.6084 24.5945 27.2784 24.1645 27.1433 23.6602Z" fill="#4589EF"/>
<path d="M44.3953 25.9871L53.9032 23.4395L59.508 44.3567C60.1836 46.8784 59.8299 49.5651 58.5246 51.826C57.2193 54.0868 55.0694 55.7365 52.5477 56.4122L50.6462 56.9217L43.0033 28.3982C42.8682 27.8938 42.9389 27.3565 43.2 26.9043C43.461 26.4522 43.891 26.1222 44.3953 25.9871Z" fill="#4589EF"/>
<path d="M41.4227 43.4946L43.9704 53.0024L23.0531 58.6072C20.5314 59.2829 17.8447 58.9292 15.5838 57.6239C13.323 56.3186 11.6733 54.1686 10.9976 51.647L10.4881 49.7454L39.0116 42.1025C39.516 41.9674 40.0533 42.0382 40.5055 42.2992C40.9577 42.5603 41.2876 42.9903 41.4227 43.4946Z" fill="#4589EF"/>
<path d="M22.6603 40.6687L13.1524 43.2163L7.54763 22.299C6.87196 19.7774 7.22568 17.0906 8.53097 14.8298C9.83627 12.5689 11.9862 10.9192 14.5079 10.2435L16.4094 9.734L24.0523 38.2576C24.1875 38.7619 24.1167 39.2993 23.8557 39.7514C23.5946 40.2036 23.1646 40.5336 22.6603 40.6687Z" fill="#4589EF"/>
</g>
<defs>
<clipPath id="clip0_8231_2894">
<rect width="278.766" height="68" fill="white"/>
</clipPath>
</defs>
</svg>
